# xmcd
#
# Track frame offsets:
#	151
#	15362
#	28975
#	41009
#	53503
#	66882
#	77817
#	92006
#	104644
#	116086
#	128451
#	144028
#	157095
#	171957
#	186491
#	200282
#	212342
#	226800
#	239841
#	252429
#	265860
#	278116
#	290697
#	304863
#	314675
#
# Disc length: 4369 seconds
#
# Revision: 0
# Processed by: cddbd v1.5.2PL0 Copyright (c) Steve Scherf et al.
# Submitted via: EasyCDDAExtractor 2010.6.0.0
#
DISCID=6d110f19
DTITLE=Various Artist - Les Legendes Du Blues. CD 2
DYEAR=2007
DGENRE=Blues
TTITLE0=Big Joe Williams and Sonny Boy Williamson - Baby Please Don't Go
TTITLE1=Amos Milburn - Down The Road Apiece
TTITLE2=Bukka White - Bukka's Jitterburg Swing
TTITLE3=Memphis Minnie - Ma Rainey
TTITLE4=Mississippi John Hurt - Ain't No Telling
TTITLE5=Muddy Waters - Muddy Jumps One
TTITLE6=Tampa Red - King Fish Blues
TTITLE7=Blind Boy Fuller - Piccolo Blues
TTITLE8=Robert Johnson - Walking Blues
TTITLE9=Champion Jack Dupree - Dupree Shake Dance
TTITLE10=Son House - Shetland Pony Blues
TTITLE11=Big Bill Broonzy - When I Been Drinking
TTITLE12=Arthur “Big Boy” Crudup - Who's Been Foolin' You
TTITLE13=John Lee Hooker - Sally Mae
TTITLE14=Blind Lemon Jefferson - Match Box Blues
TTITLE15=Lonnie Johnson - Crowing Rooster Blues
TTITLE16=Blind Willie Johnson - It's Nobodys Fault But Mine
TTITLE17=T-Bone Walker - Long Skirt Baby Blues
TTITLE18=Skip James - Cherry Ball Blues
TTITLE19=Sonny Boy Williamson - War Time Blues
TTITLE20=Charley Patton - Hang It On The Wall
TTITLE21=Joe Turner - Rebecca
TTITLE22=Son House - Special Rider Blues
TTITLE23=Lightnin' Hopkins - Feel So Bad
TTITLE24=Bukka White - Special Steam Lines
EXTD=
EXTT0=
EXTT1=
EXTT2=
EXTT3=
EXTT4=
EXTT5=
EXTT6=
EXTT7=
EXTT8=
EXTT9=
EXTT10=
EXTT11=
EXTT12=
EXTT13=
EXTT14=
EXTT15=
EXTT16=
EXTT17=
EXTT18=
EXTT19=
EXTT20=
EXTT21=
EXTT22=
EXTT23=
EXTT24=
PLAYORDER=
